<?xml version="1.0" ?><svg viewBox="0 0 32 32" xmlns="http://www.w3.org/2000/svg"><title/><g id="microphone"><path d="M17,28H16c-3,0-7.08-1.58-8.78-4.5A1,1,0,0,1,9,22.5C10.08,24.43,13.24,26,16,26h1c2.76,0,5.92-1.57,7.05-3.5a1,1,0,0,1,1.73,1C24.08,26.42,20,28,17,28Z"/><rect height="3" width="3" x="15" y="27"/><rect height="2" rx="1" ry="1" width="9" x="12" y="30"/><path d="M17,24H16a9,9,0,0,1-9-9V9a9,9,0,0,1,9-9h1a9,9,0,0,1,9,9v6A9,9,0,0,1,17,24ZM16,2A7,7,0,0,0,9,9v6a7,7,0,0,0,7,7h1a7,7,0,0,0,7-7V9a7,7,0,0,0-7-7Z"/></g></svg>