<?xml version="1.0" ?><svg viewBox="0 0 32 32" xmlns="http://www.w3.org/2000/svg"><title/><g id="volumeControl"><path d="M6,32H4a2,2,0,0,1-2-2V9.72l1.5.86a2.89,2.89,0,0,0,3,0L8,9.72V30A2,2,0,0,1,6,32ZM4,12.89V30H6V12.89A4.81,4.81,0,0,1,4,12.89Z"/><path d="M8,6.28,6.5,5.42a2.89,2.89,0,0,0-3,0L2,6.28V2A2,2,0,0,1,4,0H6A2,2,0,0,1,8,2ZM5,3a4.86,4.86,0,0,1,1,.11V2H4V3.11A4.86,4.86,0,0,1,5,3Z"/><path d="M17,32H15a2,2,0,0,1-2-2V25.72l1.5.86a2.89,2.89,0,0,0,3,0l1.5-.86V30A2,2,0,0,1,17,32Zm-2-3.11V30h2V28.89A4.81,4.81,0,0,1,15,28.89Z"/><path d="M19,22.28l-1.5-.86a2.89,2.89,0,0,0-3,0l-1.5.86V2a2,2,0,0,1,2-2h2a2,2,0,0,1,2,2ZM16,19a4.86,4.86,0,0,1,1,.11V2H15V19.11A4.86,4.86,0,0,1,16,19Z"/><path d="M28,32H26a2,2,0,0,1-2-2V13.72l1.5.86a2.89,2.89,0,0,0,3,0l1.5-.86V30A2,2,0,0,1,28,32ZM26,16.89V30h2V16.89A4.81,4.81,0,0,1,26,16.89Z"/><path d="M30,10.28l-1.5-.86a2.89,2.89,0,0,0-3,0l-1.5.86V2a2,2,0,0,1,2-2h2a2,2,0,0,1,2,2ZM27,7a4.86,4.86,0,0,1,1,.11V2H26V7.11A4.86,4.86,0,0,1,27,7Z"/><path d="M5,13a5,5,0,1,1,5-5A5,5,0,0,1,5,13ZM5,5A3,3,0,1,0,8,8,3,3,0,0,0,5,5Z"/><path d="M16,29a5,5,0,1,1,5-5A5,5,0,0,1,16,29Zm0-8a3,3,0,1,0,3,3A3,3,0,0,0,16,21Z"/><path d="M27,17a5,5,0,1,1,5-5A5,5,0,0,1,27,17Zm0-8a3,3,0,1,0,3,3A3,3,0,0,0,27,9Z"/></g></svg>