<svg version="1.1" id="Layer_1" xmlns="http://www.w3.org/2000/svg" xmlns:xlink="http://www.w3.org/1999/xlink" x="0px" y="0px"
	 viewBox="0 0 1920 491.3" style="enable-background:new 0 0 1920 491.3;" xml:space="preserve">
<g>
	<g>
		<path style="fill:#EE4423;" d="M518.7,398.7c-5.6,4.8-12.5,8.5-20.8,11.1c-8.3,2.5-16.8,3.8-25.6,3.8c-21.3,0-37.8-5.8-49.5-17.3
			c-11.7-11.5-17.6-28-17.6-49.5v-117h-35.9V198h35.9v-46.7h38.3V198h60.7v31.8h-60.7v115.4c0,11.5,2.9,20.4,8.6,26.5
			c5.7,6.2,13.9,9.2,24.6,9.2c11.7,0,21.7-3.3,29.9-10.1L518.7,398.7z"/>
		<path style="fill:#EE4423;" d="M619.3,205.7c13-6.4,28.9-9.7,47.5-9.7v37.4c-2.1-0.3-5.1-0.4-8.8-0.4c-20.8,0-37.1,6.2-48.9,18.7
			c-11.8,12.5-17.8,30.2-17.8,53.3v106.2H553V198h36.7v35.8C596.4,221.5,606.2,212.1,619.3,205.7"/>
		<path style="fill:#EE4423;" d="M845.9,217.7c15.6,14.5,23.4,36.1,23.4,64.8v128.7h-36.3V383c-6.4,9.9-15.5,17.5-27.3,22.7
			c-11.9,5.2-25.9,7.8-42.1,7.8c-23.7,0-42.7-5.8-56.9-17.3c-14.2-11.5-21.4-26.7-21.4-45.4c0-18.8,6.8-33.9,20.4-45.3
			c13.6-11.4,35.1-17.1,64.7-17.1h60.7v-7.6c0-16.6-4.8-29.4-14.4-38.2c-9.6-8.9-23.7-13.3-42.3-13.3c-12.5,0-24.8,2.1-36.7,6.2
			c-12,4.2-22.1,9.7-30.3,16.7l-16-29c10.9-8.9,24-15.6,39.1-20.3c15.2-4.7,31.3-7,48.3-7C807.9,196,830.3,203.3,845.9,217.7
			 M807.7,374c10.6-6.6,18.4-15.9,23.2-28v-29.8h-59.1c-32.5,0-48.7,11-48.7,33c0,10.7,4.1,19.2,12.4,25.3
			c8.2,6.2,19.7,9.2,34.3,9.2C784.4,383.8,797.1,380.6,807.7,374"/>
		<polygon style="fill:#EE4423;" points="1111.6,198 1019,411.2 979.8,411.2 887.2,198 927.1,198 999.8,369 1074.1,198 		"/>
		<path style="fill:#EE4423;" d="M1320,317.5h-171.7c2.4,18.8,10.6,33.9,24.6,45.2c14,11.4,31.3,17.1,52.1,17.1
			c25.3,0,45.6-8.6,61.1-25.7l21.2,24.9c-9.6,11.3-21.5,19.8-35.7,25.7c-14.2,5.9-30.1,8.8-47.7,8.8c-22.4,0-42.2-4.6-59.5-13.9
			c-17.3-9.3-30.7-22.2-40.1-38.8c-9.5-16.6-14.2-35.4-14.2-56.3c0-20.6,4.6-39.3,13.8-55.9c9.2-16.6,21.8-29.6,37.9-38.8
			c16.1-9.3,34.3-13.9,54.5-13.9c20.2,0,38.3,4.6,54.1,13.9c15.8,9.3,28.2,22.2,37.1,38.8c8.9,16.6,13.4,35.7,13.4,57.1
			C1320.8,308.8,1320.5,312.7,1320,317.5 M1170.1,245.5c-12.4,11.3-19.6,26-21.8,44.2h135.8c-2.1-18-9.4-32.6-21.8-44
			c-12.4-11.4-27.7-17.1-46.1-17.1C1197.8,228.6,1182.5,234.2,1170.1,245.5"/>
		<path style="fill:#EE4423;" d="M1372.7,406.6c-16-4.7-28.5-10.7-37.5-17.9l16-30.6c9.3,6.7,20.6,12.1,33.9,16.1
			c13.3,4,26.8,6,40.3,6c33.5,0,50.3-9.6,50.3-29c0-6.4-2.3-11.5-6.8-15.3c-4.5-3.8-10.2-6.5-17-8.2c-6.8-1.7-16.4-3.7-29-5.8
			c-17-2.7-30.9-5.8-41.7-9.2c-10.8-3.5-20-9.4-27.8-17.7c-7.7-8.3-11.6-20-11.6-35c0-19.3,8-34.8,24-46.5
			c16-11.7,37.4-17.5,64.3-17.5c14.1,0,28.2,1.7,42.3,5.2c14.1,3.5,25.7,8.2,34.7,14.1l-16.4,30.6c-17.3-11.3-37.7-16.9-61.1-16.9
			c-16.2,0-28.6,2.7-37.1,8c-8.5,5.4-12.8,12.5-12.8,21.3c0,7,2.4,12.5,7.2,16.5c4.8,4,10.7,7,17.8,8.8c7.1,1.9,17,4,29.8,6.4
			c17,3,30.8,6.1,41.3,9.4c10.5,3.4,19.5,9.1,27,17.1c7.4,8,11.2,19.3,11.2,33.8c0,19.3-8.2,34.7-24.6,46
			c-16.4,11.4-38.7,17.1-66.9,17.1C1405.3,413.6,1388.7,411.3,1372.7,406.6"/>
		<path style="fill:#EE4423;" d="M1746.7,198l-102.6,234.5c-9,21.7-19.6,37-31.7,45.9c-12.1,8.8-26.7,13.3-43.7,13.3
			c-10.4,0-20.4-1.7-30.1-5c-9.7-3.4-17.8-8.2-24.2-14.7l16.4-29c10.9,10.5,23.6,15.7,37.9,15.7c9.3,0,17.1-2.5,23.4-7.4
			c6.2-5,11.9-13.5,17-25.5l6.8-14.9L1522.3,198h39.9l73.9,170.5l73.1-170.5H1746.7z"/>
		<path style="fill:#EE4423;" d="M1778.7,406.6c-16-4.7-28.5-10.7-37.5-17.9l16-30.6c9.3,6.7,20.6,12.1,33.9,16.1
			c13.3,4,26.7,6,40.3,6c33.5,0,50.3-9.6,50.3-29c0-6.4-2.3-11.5-6.8-15.3c-4.5-3.8-10.2-6.5-17-8.2c-6.8-1.7-16.4-3.7-28.9-5.8
			c-17-2.7-30.9-5.8-41.7-9.2c-10.8-3.5-20-9.4-27.7-17.7c-7.7-8.3-11.6-20-11.6-35c0-19.3,8-34.8,24-46.5
			c16-11.7,37.4-17.5,64.3-17.5c14.1,0,28.2,1.7,42.3,5.2c14.1,3.5,25.7,8.2,34.7,14.1l-16.4,30.6c-17.3-11.3-37.7-16.9-61.1-16.9
			c-16.2,0-28.6,2.7-37.1,8c-8.5,5.4-12.8,12.5-12.8,21.3c0,7,2.4,12.5,7.2,16.5c4.8,4,10.7,7,17.8,8.8c7,1.9,17,4,29.7,6.4
			c17,3,30.8,6.1,41.3,9.4c10.5,3.4,19.5,9.1,27,17.1c7.4,8,11.2,19.3,11.2,33.8c0,19.3-8.2,34.7-24.6,46
			c-16.4,11.4-38.7,17.1-66.9,17.1C1811.3,413.6,1794.6,411.3,1778.7,406.6"/>
	</g>
	<path style="fill:#EE4423;" d="M193,145.7c-32.4,5.4-61.9-14.6-65.7-44.6c-3.9-30,19.3-58.7,51.7-64.1
		c32.4-5.4,61.9,14.6,65.7,44.6C248.6,111.6,225.5,140.3,193,145.7 M219.2,5.5C132.7-23.6-64.4,62.6,21,262.6
		c33.8,79.1,95.9,146.2,130.7,146c31.4-0.2,47.6-22.2,85.4-80.6C302.4,227,355.1,51.3,219.2,5.5"/>
	<path style="fill:#EE4423;" d="M193,145.7c-32.4,5.4-61.9-14.6-65.7-44.6c-3.9-30,19.3-58.7,51.7-64.1
		c32.4-5.4,61.9,14.6,65.7,44.6C248.6,111.6,225.5,140.3,193,145.7 M219.2,5.5C132.7-23.6-64.4,62.6,21,262.6
		c33.8,79.1,95.9,146.2,130.7,146c31.4-0.2,47.6-22.2,85.4-80.6C302.4,227,355.1,51.3,219.2,5.5"/>
</g>
</svg>
